<svg width="150" height="32" viewBox="0 0 150 32" fill="none" xmlns="http://www.w3.org/2000/svg">
<path d="M136.139 4C129.294 4 123.744 9.82024 123.744 17C123.744 24.1797 129.294 29.9999 136.139 29.9999C142.985 29.9999 148.535 24.1797 148.535 17C148.535 9.82024 142.985 4 136.139 4ZM132.832 23.2849H130.111V14.0635H132.832V23.2849ZM131.459 12.8559C130.57 12.8559 129.849 12.0941 129.849 11.1544C129.849 10.2147 130.57 9.45286 131.459 9.45286C132.347 9.45286 133.068 10.2147 133.068 11.1544C133.068 12.0941 132.347 12.8559 131.459 12.8559ZM143.031 23.2849H140.323V18.4444C140.323 17.1168 139.842 16.3758 138.841 16.3758C137.752 16.3758 137.183 17.1476 137.183 18.4444V23.2849H134.572V14.0635H137.183V15.3055C137.183 15.3055 137.968 13.7822 139.832 13.7822C141.697 13.7822 143.031 14.9762 143.031 17.446L143.031 23.2849Z" fill="#0D0D0D"></path>
<path d="M143.031 23.2849H140.323V18.4444C140.323 17.1168 139.842 16.3758 138.841 16.3758C137.752 16.3758 137.183 17.1476 137.183 18.4444V23.2849H134.572V14.0635H137.183V15.3055C137.183 15.3055 137.968 13.7822 139.832 13.7822C141.697 13.7822 143.031 14.9762 143.031 17.446L143.031 23.2849Z" fill="white"></path>
<path d="M132.832 23.2849H130.111V14.0635H132.832V23.2849Z" fill="white"></path>
<path d="M131.459 12.8559C130.57 12.8559 129.849 12.0941 129.849 11.1544C129.849 10.2147 130.57 9.45286 131.459 9.45286C132.347 9.45286 133.068 10.2147 133.068 11.1544C133.068 12.0941 132.347 12.8559 131.459 12.8559Z" fill="white"></path>
<path d="M133.443 11.1544C133.443 10.0275 132.574 9.07786 131.459 9.07786C130.343 9.07786 129.474 10.0275 129.474 11.1544C129.474 12.2812 130.343 13.2309 131.459 13.2309C132.574 13.2309 133.443 12.2813 133.443 11.1544ZM133.443 11.1544H133.068H133.443ZM143.406 23.6599L143.406 23.2849L143.406 17.446C143.406 16.1455 143.054 15.1276 142.405 14.4321C141.754 13.7339 140.846 13.4072 139.832 13.4072C138.788 13.4072 138.041 13.8363 137.56 14.2633C137.559 14.2638 137.558 14.2644 137.558 14.2649V14.0635V13.6885H137.183H134.572H134.197V14.0635V23.2849V23.6599H134.572H137.183H137.558V23.2849V18.4444C137.558 17.8436 137.691 17.4204 137.899 17.1552C138.095 16.904 138.394 16.7508 138.841 16.7508C139.236 16.7508 139.484 16.889 139.65 17.127C139.832 17.3878 139.948 17.8153 139.948 18.4444V23.2849V23.6599H140.323H143.031H143.406ZM136.808 15.3055L137.515 15.477C137.516 15.4775 137.516 15.4776 137.516 15.4776L137.516 15.4778L137.52 15.4707C137.522 15.4673 137.524 15.4629 137.527 15.4575C137.531 15.4509 137.536 15.4429 137.541 15.4336C137.562 15.3998 137.594 15.3488 137.639 15.2865C137.729 15.1613 137.867 14.9928 138.057 14.8244C138.434 14.4898 139.012 14.1572 139.832 14.1572C140.683 14.1572 141.375 14.4275 141.857 14.9438C142.341 15.4627 142.656 16.2767 142.656 17.446L142.656 22.9099H140.698V18.4444C140.698 17.7459 140.573 17.1391 140.265 16.6975C139.94 16.233 139.448 16.0008 138.841 16.0008C138.199 16.0008 137.668 16.2334 137.308 16.6924C136.959 17.1373 136.808 17.7484 136.808 18.4444V22.9099H134.947V14.4385H136.808V15.3055ZM132.832 23.6599H133.207V23.2849V14.0635V13.6885H132.832H130.111H129.736V14.0635V23.2849V23.6599H130.111H132.832ZM132.693 11.1544V11.1544C132.693 11.907 132.121 12.4809 131.459 12.4809C130.796 12.4809 130.224 11.9069 130.224 11.1544C130.224 10.4018 130.796 9.82786 131.459 9.82786C132.121 9.82786 132.693 10.4018 132.693 11.1544ZM124.119 17C124.119 10.0103 129.517 4.375 136.139 4.375C142.761 4.375 148.16 10.0103 148.16 17C148.16 23.9896 142.762 29.6249 136.139 29.6249C129.517 29.6249 124.119 23.9896 124.119 17ZM132.457 14.4385V22.9099H130.486V14.4385H132.457Z" stroke="#F9F9F9" stroke-width="0.75"></path>
<g clip-path="url('#clip0_854_17944')">
<mask id="mask0_854_17944" style="mask-type: luminance" maskUnits="userSpaceOnUse" x="93" y="4" width="26" height="26">
<path d="M117.802 17C117.802 23.9263 112.454 29.5 105.907 29.5C99.3595 29.5 94.0116 23.9263 94.0116 17C94.0116 10.0737 99.3595 4.5 105.907 4.5C112.454 4.5 117.802 10.0737 117.802 17Z" fill="white" stroke="white"></path>
</mask>
<g mask="url('#mask0_854_17944')">
<path d="M98.8377 56.6094C113.545 56.6094 125.468 44.1048 125.468 28.6797C125.468 13.2545 113.545 0.75 98.8377 0.75C84.13 0.75 72.2071 13.2545 72.2071 28.6797C72.2071 44.1048 84.13 56.6094 98.8377 56.6094Z" fill="#0D0D0D"></path>
<path d="M117.802 17C117.802 23.9263 112.454 29.5 105.907 29.5C99.3595 29.5 94.0116 23.9263 94.0116 17C94.0116 10.0737 99.3595 4.5 105.907 4.5C112.454 4.5 117.802 10.0737 117.802 17Z" fill="black" stroke="white"></path>
</g>
<path d="M109.393 14.3594C109.928 14.3594 110.362 13.9047 110.362 13.3438C110.362 12.7828 109.928 12.3281 109.393 12.3281C108.858 12.3281 108.425 12.7828 108.425 13.3438C108.425 13.9047 108.858 14.3594 109.393 14.3594Z" fill="white"></path>
<path d="M105.907 13.75C105.294 13.75 104.695 13.9406 104.185 14.2977C103.676 14.6548 103.279 15.1624 103.044 15.7563C102.809 16.3501 102.748 17.0036 102.868 17.634C102.987 18.2645 103.282 18.8436 103.716 19.2981C104.149 19.7526 104.701 20.0622 105.302 20.1876C105.904 20.313 106.527 20.2486 107.093 20.0026C107.659 19.7566 108.143 19.3401 108.484 18.8056C108.824 18.2711 109.006 17.6428 109.006 17C109.006 16.138 108.679 15.3114 108.098 14.7019C107.517 14.0924 106.729 13.75 105.907 13.75ZM105.907 18.625C105.6 18.625 105.301 18.5297 105.046 18.3511C104.791 18.1726 104.593 17.9188 104.475 17.6219C104.358 17.3249 104.328 16.9982 104.387 16.683C104.447 16.3678 104.595 16.0782 104.811 15.851C105.028 15.6237 105.304 15.4689 105.605 15.4062C105.905 15.3435 106.217 15.3757 106.5 15.4987C106.783 15.6217 107.025 15.83 107.195 16.0972C107.365 16.3644 107.456 16.6786 107.456 17C107.456 17.431 107.293 17.8443 107.003 18.149C106.712 18.4538 106.318 18.625 105.907 18.625Z" fill="white"></path>
<path d="M109.78 10.5H102.033C100.75 10.5 99.7092 11.5913 99.7092 12.9375V21.0625C99.7092 22.4087 100.75 23.5 102.033 23.5H109.78C111.064 23.5 112.105 22.4087 112.105 21.0625V12.9375C112.105 11.5913 111.064 10.5 109.78 10.5Z" stroke="white" stroke-width="2" stroke-miterlimit="10"></path>
</g>
<path d="M75.0698 4.5C81.6172 4.5 86.9651 10.0737 86.9651 17C86.9651 23.9263 81.6172 29.5 75.0698 29.5C68.5223 29.5 63.1744 23.9263 63.1744 17C63.1744 10.0737 68.5223 4.5 75.0698 4.5Z" fill="#0D0D0D" stroke="white"></path>
<path fill-rule="evenodd" clip-rule="evenodd" d="M81.1322 11.6595C81.7958 11.8469 82.3191 12.3957 82.4978 13.0918C82.8296 14.3634 82.8169 17.0137 82.8169 17.0137C82.8169 17.0137 82.8169 19.6506 82.4978 20.9223C82.3191 21.6183 81.7958 22.1671 81.1322 22.3545C79.9197 22.6891 75.0698 22.6891 75.0698 22.6891C75.0698 22.6891 70.2327 22.6891 69.0074 22.3411C68.3438 22.1537 67.8205 21.6049 67.6418 20.9089C67.3228 19.6506 67.3228 17.0003 67.3228 17.0003C67.3228 17.0003 67.3228 14.3634 67.6418 13.0918C67.8205 12.3957 68.3565 11.8335 69.0074 11.6461C70.2199 11.3115 75.0698 11.3115 75.0698 11.3115C75.0698 11.3115 79.9197 11.3115 81.1322 11.6595ZM77.5586 17.0003L73.5255 19.4365V14.5642L77.5586 17.0003Z" fill="white"></path>
<path d="M43.9305 30.108C50.8664 30.108 56.489 24.2395 56.489 17.0003C56.489 9.76111 50.8664 3.89258 43.9305 3.89258C36.9946 3.89258 31.3719 9.76111 31.3719 17.0003C31.3719 24.2395 36.9946 30.108 43.9305 30.108Z" fill="#0D0D0D" stroke="white" stroke-miterlimit="10"></path>
<path d="M36.1938 9.40625L42.1967 17.7835L36.156 24.5945H37.5156L42.8043 18.6312L47.0773 24.5945H51.7038L45.3631 15.7462L50.9858 9.40625H49.6262L44.7557 14.8982L40.8203 9.40625H36.1938ZM38.1932 10.4514H40.3186L49.7042 23.5493H47.5788L38.1932 10.4514Z" fill="white"></path>
<path d="M25.2907 17C25.2907 23.9263 19.9428 29.5 13.3953 29.5C6.8479 29.5 1.5 23.9263 1.5 17C1.5 10.0737 6.8479 4.5 13.3953 4.5C19.9428 4.5 25.2907 10.0737 25.2907 17Z" fill="#0D0D0D" stroke="white"></path>
<path d="M17.4258 7.99023H14.68C13.0505 7.99023 11.238 8.70901 11.238 11.1862C11.246 12.0494 11.238 12.8761 11.238 13.8064H9.35291V16.9525H11.2963V26.0096H14.8675V16.8927H17.2246L17.4379 13.7976H14.806C14.806 13.7976 14.8119 12.4207 14.806 12.0209C14.806 11.0419 15.7772 11.098 15.8357 11.098C16.2978 11.098 17.1965 11.0994 17.4272 11.098V7.99023H17.4258Z" fill="white"></path>
<defs>
<clipPath id="clip0_854_17944">
<rect width="27" height="32" fill="white" transform="translate(93)"></rect>
</clipPath>
</defs>
</svg>