<svg width="30" height="30" fill="none" xmlns="http://www.w3.org/2000/svg"><path d="M1 5.356h.142a4.3 4.3 0 0 0 1.415 2.316A3.814 3.814 0 0 0 5 8.57c.885 0 1.745-.316 2.443-.898a4.3 4.3 0 0 0 1.415-2.316H29c.265 0 .52-.112.707-.313.188-.201.293-.474.293-.758 0-.284-.105-.557-.293-.758A.967.967 0 0 0 29 3.213H8.858A4.3 4.3 0 0 0 7.443.898 3.814 3.814 0 0 0 5 0c-.885 0-1.745.316-2.443.898a4.3 4.3 0 0 0-1.415 2.315H1a.967.967 0 0 0-.707.314C.105 3.728 0 4.001 0 4.285c0 .284.105.557.293.758A.967.967 0 0 0 1 5.356Zm4-3.214c.396 0 .782.126 1.111.361.329.236.585.57.737.962.151.391.19.822.114 1.238A2.194 2.194 0 0 1 6.414 5.8c-.28.3-.636.504-1.024.587-.388.083-.79.04-1.155-.122a2.037 2.037 0 0 1-.898-.79A2.253 2.253 0 0 1 3 4.286c0-.568.21-1.113.586-1.515A1.935 1.935 0 0 1 5 2.142Zm24 11.787h-.142a4.301 4.301 0 0 0-1.415-2.316A3.814 3.814 0 0 0 25 10.715c-.885 0-1.745.316-2.443.898a4.301 4.301 0 0 0-1.415 2.316H1a.968.968 0 0 0-.707.313A1.112 1.112 0 0 0 0 15c0 .284.105.557.293.758.187.2.442.314.707.314h20.142a4.301 4.301 0 0 0 1.415 2.315 3.814 3.814 0 0 0 2.443.898c.885 0 1.745-.316 2.443-.898a4.301 4.301 0 0 0 1.415-2.316H29c.265 0 .52-.112.707-.313.188-.201.293-.474.293-.758 0-.284-.105-.557-.293-.758a.967.967 0 0 0-.707-.314Zm-4 3.214c-.396 0-.782-.126-1.111-.361a2.118 2.118 0 0 1-.737-.962 2.287 2.287 0 0 1-.114-1.238c.078-.416.268-.798.548-1.097.28-.3.636-.504 1.024-.587.388-.082.79-.04 1.155.122.366.162.678.437.898.79.22.352.337.766.337 1.19 0 .568-.21 1.113-.586 1.515a1.935 1.935 0 0 1-1.414.628Zm4 7.5H18.858a4.301 4.301 0 0 0-1.415-2.315A3.814 3.814 0 0 0 15 21.43c-.885 0-1.745.316-2.443.898a4.301 4.301 0 0 0-1.415 2.316H1a.968.968 0 0 0-.707.313 1.112 1.112 0 0 0-.293.758c0 .284.105.557.293.758.187.2.442.314.707.314h10.142a4.301 4.301 0 0 0 1.415 2.315A3.814 3.814 0 0 0 15 30c.885 0 1.745-.316 2.443-.898a4.301 4.301 0 0 0 1.415-2.316H29c.265 0 .52-.112.707-.313.188-.201.293-.474.293-.758 0-.284-.105-.557-.293-.758a.967.967 0 0 0-.707-.314Zm-14 3.215c-.396 0-.782-.126-1.111-.361a2.118 2.118 0 0 1-.737-.962 2.287 2.287 0 0 1-.114-1.238c.078-.416.268-.798.548-1.097.28-.3.636-.504 1.024-.587.388-.082.79-.04 1.155.122.366.162.678.437.898.79.22.352.337.766.337 1.19 0 .568-.21 1.113-.586 1.515a1.935 1.935 0 0 1-1.414.628Z" fill="#000"/></svg>