<svg width="27" height="32" fill="none" xmlns="http://www.w3.org/2000/svg"><g clip-path="url('#clip0_854_17951')"><mask id="mask0_854_17951" style="mask-type:luminance" maskUnits="userSpaceOnUse" x="0" y="4" width="26" height="26"><path d="M24.802 17c0 6.926-5.348 12.5-11.895 12.5-6.548 0-11.895-5.574-11.895-12.5S6.36 4.5 12.907 4.5 24.802 10.074 24.802 17Z" fill="#fff" stroke="#fff"/></mask><g mask="url('#mask0_854_17951')"><path d="M5.838 56.61c14.707 0 26.63-12.505 26.63-27.93C32.468 13.255 20.545.75 5.838.75c-14.708 0-26.63 12.505-26.63 27.93 0 15.425 11.922 27.93 26.63 27.93Z" fill="#0D0D0D"/><path d="M24.802 17c0 6.926-5.348 12.5-11.895 12.5-6.548 0-11.895-5.574-11.895-12.5S6.36 4.5 12.907 4.5 24.802 10.074 24.802 17Z" fill="#000" stroke="#fff"/></g><path d="M16.393 14.36c.535 0 .969-.455.969-1.016 0-.561-.434-1.016-.969-1.016-.535 0-.968.455-.968 1.016 0 .56.433 1.015.968 1.015ZM12.907 13.75c-.613 0-1.212.19-1.722.548-.51.357-.907.864-1.141 1.458a3.397 3.397 0 0 0-.176 1.878c.12.63.414 1.21.848 1.664.433.455.985.764 1.586.89a2.965 2.965 0 0 0 1.79-.185 3.135 3.135 0 0 0 1.391-1.197c.341-.535.523-1.163.523-1.806 0-.862-.327-1.689-.908-2.298a3.028 3.028 0 0 0-2.191-.952Zm0 4.875c-.306 0-.606-.095-.86-.274a1.61 1.61 0 0 1-.572-.73 1.699 1.699 0 0 1-.088-.938c.06-.315.208-.605.424-.832.217-.227.493-.382.794-.445.3-.063.612-.03.895.093.283.123.525.331.695.598.17.267.261.582.261.903 0 .431-.163.844-.454 1.149-.29.305-.684.476-1.095.476Z" fill="#fff"/><path d="M16.78 10.5H9.033c-1.283 0-2.324 1.091-2.324 2.438v8.124c0 1.347 1.04 2.438 2.324 2.438h7.747c1.284 0 2.325-1.091 2.325-2.438v-8.125c0-1.346-1.041-2.437-2.325-2.437Z" stroke="#fff" stroke-width="2" stroke-miterlimit="10"/></g><defs><clipPath id="clip0_854_17951"><path fill="#fff" d="M0 0h27v32H0z"/></clipPath></defs></svg>