<svg version="1.0" xmlns="http://www.w3.org/2000/svg" width="29" height="34" viewBox="0 0 204 192"><path d="M84.5 11.5C30.1 23.9 1 82 24.1 131.8c14.5 31.4 44.1 50.4 78.4 50.4 24.9 0 45.6-9 63.1-27.5 32.8-34.4 31-88.2-4-121.5-9.2-8.8-19.7-15-32.4-19.2-8.9-3-10.9-3.3-24.2-3.6-9.8-.2-16.5.1-20.5 1.1zm50.3 33.8c10.1 3.6 17.2 11.4 19.2 21.3.7 3.5 1 15.1.8 32.7-.3 25.4-.4 27.5-2.5 31.9-2.9 6.3-9.3 12.3-16.1 15-5.4 2.1-6.9 2.2-33.7 2.2-26.8 0-28.3-.1-33.7-2.2-6.8-2.7-13.2-8.7-16.1-15-2.1-4.5-2.2-6.1-2.2-35.2 0-26.8.2-31 1.7-34.3 4.5-9.9 13-16.1 24-17.7 3.5-.5 17.1-.7 30.3-.6 18.6.2 25 .6 28.3 1.9z"/><path d="M78 53.9c-9.4 1.3-14.1 4.9-16.8 13-1.6 4.5-1.6 52.1-.1 57.6 1.6 5.9 4.6 9.5 9.8 11.9 4.3 2 6.2 2.1 31.6 2.1 26.3 0 27.1-.1 31.7-2.3 9.8-4.8 10.8-8.6 10.8-40.2 0-31.5-1.2-36-10.9-40.3-4.1-1.9-6.9-2.1-27.6-2.3-12.6-.1-25.5.1-28.5.5zm57.3 9.9c4 3.5.8 10.2-4.9 10.2-6.6 0-8.5-8.7-2.5-11.6 2.6-1.3 4.6-.9 7.4 1.4zm-21.8 7.6c13.4 6.2 19.6 21.8 14 35.2-1.9 4.6-8.2 11.2-12.9 13.6-6.3 3.2-15.9 3.6-22.4.8-9.4-4.1-17.2-15.4-17.2-25 0-5.6 3.1-13.2 7.3-17.7 8.4-9.1 20.7-11.9 31.2-6.9z"/><path d="M96 79.7c-6.3 2.5-11 9.5-11 16.3 0 5 3.2 11.3 7.1 14 4.4 3.2 13.2 3.9 18.4 1.5 10.8-5.2 12.4-21.9 2.8-29.2-2.8-2.2-4.8-2.8-9.7-3-3.3-.1-6.8 0-7.6.4z"/></svg>