<svg width="27" height="32" fill="none" xmlns="http://www.w3.org/2000/svg"><path d="M13.14 4C6.293 4 .743 9.82.743 17s5.55 13 12.396 13c6.845 0 12.395-5.82 12.395-13S19.985 4 13.139 4ZM9.832 23.285H7.111v-9.222h2.721v9.222ZM8.46 12.855c-.89 0-1.61-.76-1.61-1.7s.72-1.702 1.61-1.702c.888 0 1.609.762 1.609 1.701 0 .94-.72 1.702-1.61 1.702Zm11.572 10.43h-2.708v-4.84c0-1.328-.48-2.07-1.482-2.07-1.09 0-1.658.773-1.658 2.07v4.84h-2.61v-9.222h2.61v1.242s.785-1.523 2.65-1.523c1.864 0 3.198 1.194 3.198 3.664v5.839Z" fill="#0D0D0D"/><path d="M20.031 23.285h-2.708v-4.84c0-1.328-.48-2.07-1.482-2.07-1.09 0-1.658.773-1.658 2.07v4.84h-2.61v-9.222h2.61v1.242s.785-1.523 2.65-1.523c1.864 0 3.198 1.194 3.198 3.664v5.839ZM9.832 23.285H7.111v-9.222h2.721v9.222ZM8.459 12.856c-.89 0-1.61-.762-1.61-1.702s.72-1.701 1.61-1.701c.888 0 1.609.762 1.609 1.701 0 .94-.72 1.702-1.61 1.702Z" fill="#fff"/><path d="M10.443 11.154c0-1.127-.87-2.076-1.984-2.076-1.116 0-1.985.95-1.985 2.076 0 1.127.87 2.077 1.985 2.077 1.115 0 1.984-.95 1.984-2.077Zm0 0h-.375.375Zm9.963 12.506v-6.214c0-1.3-.352-2.318-1-3.014-.652-.698-1.56-1.025-2.574-1.025a3.36 3.36 0 0 0-2.273.856l-.001.002v-.577H11.197v9.972H14.558v-5.215c0-.601.133-1.025.34-1.29.197-.251.496-.404.943-.404.395 0 .643.138.809.376.182.26.298.688.298 1.317v5.216h3.458Zm-6.598-8.354.707.171.005-.006a1.37 1.37 0 0 1 .021-.037 2.846 2.846 0 0 1 .516-.61 2.61 2.61 0 0 1 1.775-.667c.85 0 1.543.27 2.025.787.484.519.8 1.333.8 2.502v5.464h-1.96v-4.466c0-.698-.124-1.305-.432-1.746-.325-.465-.817-.697-1.424-.697-.642 0-1.173.232-1.533.691-.348.445-.5 1.056-.5 1.752v4.466h-1.86v-8.472h1.86v.867ZM9.832 23.66h.375v-9.972H6.736v9.972h3.096Zm-.14-12.506c0 .753-.571 1.327-1.233 1.327-.663 0-1.235-.574-1.235-1.327 0-.752.572-1.326 1.235-1.326.662 0 1.234.574 1.234 1.326ZM1.12 17c0-6.99 5.398-12.625 12.02-12.625S25.16 10.01 25.16 17s-5.397 12.625-12.02 12.625C6.518 29.625 1.12 23.99 1.12 17Zm8.338-2.562v8.472H7.486v-8.472h1.971Z" stroke="#F9F9F9" stroke-width=".75"/></svg>