<svg version="1.0" xmlns="http://www.w3.org/2000/svg" width="25" height="30" viewBox="0 0 980 982"><path d="M470.5.6c-70.2 3.3-135.4 19.8-196 49.4-105 51.4-188.4 138.5-234.3 244.5-17.2 39.8-30 84.6-36.1 127-5.4 37.1-5.4 101.8 0 139 11.4 79.6 44.6 159.7 92.7 224 19.6 26.1 52.4 60.9 76.2 80.6 78.6 65.3 164.7 102 266 113.4 77.9 8.7 155.5-2 231.5-32 14.8-5.8 45.9-20.8 62-29.9 56.7-32.1 111.1-80.3 151-134.1 76.6-102.9 109.7-233.8 91.4-361.5-21.1-147.4-110-279.4-238.6-354.1-15.7-9.2-45.3-23.5-63.4-30.7C626.1 17.5 577.2 6.1 527 2.1 512.7 1 480.9.1 470.5.6zM305 226.6c9.7 2.2 20.5 8 27.7 14.8 5 4.6 7.3 7.9 10.8 15 5.8 11.7 7.5 18.8 7.5 30.4 0 11.5-1.9 19.2-7.2 29.4-9 17.3-24.8 28.1-48.5 32.9-5.7 1.2-6.8 1.1-16.4-1.4-15-4-24-8.7-32.4-17.2-23.7-23.6-24.7-62.1-2.4-86 8.2-8.6 21.7-16.2 33.2-18.5 6.9-1.3 20.8-1.1 27.7.6zm38.8 352.6L344 757H236V401l53.8.2 53.7.3.3 177.7zM520 426.5c0 14 .2 25.5.6 25.5.3 0 3-2.8 6.1-6.3 19.8-21.9 37.2-32.8 62.3-39.1 15.5-3.9 27-4.9 47.5-4.3 20.9.6 32.8 2.5 47.7 7.4 31.9 10.5 50.7 32.7 60.8 71.9 3.8 14.7 4.6 25 6 79.9.9 34.7 3 165.1 3 188.2v7.3H643v-94.8c-.1-121.5-.8-136.8-7.7-149.4-4.1-7.6-11.2-14.2-17.7-16.7-7.9-2.9-22.2-4.4-35.6-3.7-20.5 1-34.4 6-44 15.7-10.6 10.8-13.4 19-15 45-.9 14.5-3 143.9-3 187.6V757H412.8l.4-176.4c.1-97 .7-176.8 1.1-177.3 1.3-1.2 23.4-1.9 67-2.1l38.7-.2v25.5z"/></svg>