<svg width="29" height="33" viewBox="0 0 28 32" fill="none" xmlns="http://www.w3.org/2000/svg"><path d="M14.07 4.5c6.547 0 11.895 5.574 11.895 12.5S20.617 29.5 14.07 29.5C7.522 29.5 2.174 23.926 2.174 17S7.522 4.5 14.07 4.5Z" fill="#0D0D0D" stroke="#fff"/><path fill-rule="evenodd" clip-rule="evenodd" d="M20.132 11.66c.664.187 1.187.736 1.366 1.432.332 1.271.319 3.922.319 3.922s0 2.637-.32 3.908c-.178.696-.701 1.245-1.365 1.433-1.212.334-6.062.334-6.062.334s-4.837 0-6.063-.348c-.663-.187-1.186-.736-1.365-1.432-.32-1.258-.32-3.909-.32-3.909s0-2.637.32-3.908c.178-.696.715-1.258 1.365-1.446 1.213-.335 6.063-.335 6.063-.335s4.85 0 6.062.348ZM16.56 17l-4.034 2.436v-4.872L16.56 17Z" fill="#fff"/></svg>